<?xml version="1.0" encoding="UTF-8"?>
<svg version="1.1" xmlns="http://www.w3.org/2000/svg" width="1024" height="1024">
<path d="M0 0 C337.92 0 675.84 0 1024 0 C1024 337.92 1024 675.84 1024 1024 C686.08 1024 348.16 1024 0 1024 C0 686.08 0 348.16 0 0 Z " fill="#FEFEFC" transform="translate(0,0)"/>
<path d="M0 0 C9.12586452 6.1540412 15.22038566 15.55758073 17.77075195 26.23608398 C18.71021196 32.04400517 18.6269131 37.94215614 18.625 43.8125 C18.6260675 44.50403168 18.62713501 45.19556335 18.62823486 45.90805054 C18.56944084 72.23440861 6.3909846 88.90213744 -11.72007751 106.93559265 C-12.99543077 108.19908906 -14.27087 109.46249869 -15.54638672 110.72583008 C-16.91274386 112.08670005 -18.27863128 113.44804177 -19.64408875 114.80981445 C-22.56477314 117.72085234 -25.48848634 120.62880007 -28.414608 123.53437233 C-33.04282681 128.13057396 -37.66269749 132.73510664 -42.28128052 137.34098816 C-53.74499138 148.77074116 -65.21814326 160.19100427 -76.69598389 171.60656738 C-85.63652779 180.49865126 -94.57385536 189.39390922 -103.50068676 198.29976195 C-108.0906099 202.87817266 -112.68738395 207.44955611 -117.28944087 212.01576865 C-120.14705192 214.85418901 -122.99839056 217.69884592 -125.84801674 220.54528046 C-127.16964146 221.86288715 -128.49385037 223.17790765 -129.82082558 224.49012566 C-131.63267181 226.28254406 -133.43500821 228.0840241 -135.23532104 229.88801575 C-136.02426736 230.66180792 -136.02426736 230.66180792 -136.82915199 231.45123225 C-140.90601586 235.56796966 -143.49863888 239.39128565 -144.25 245.1875 C-143.3480455 252.66083726 -139.31112632 257.91079036 -134.04586792 263.03323364 C-133.473725 263.605972 -132.90158207 264.17871036 -132.31210148 264.76880443 C-130.40865736 266.6694894 -128.49134724 268.55551789 -126.57373047 270.44189453 C-125.19933104 271.80861007 -123.82584483 273.17624447 -122.45320129 274.54472351 C-119.50201948 277.48328909 -116.54474452 280.41553041 -113.58260727 283.34305191 C-108.88901587 287.98236648 -104.21088516 292.63706598 -99.53494263 297.29415894 C-88.75529895 308.02568934 -77.95580479 318.73717102 -67.15589142 329.44829559 C-57.2704044 339.25286189 -47.38927882 349.06172035 -37.52435029 358.88697708 C-32.88632985 363.50519306 -28.23876399 368.11350579 -23.58338618 372.71422124 C-20.67352842 375.59398798 -17.77220959 378.48224641 -14.87300682 381.37273598 C-13.53912323 382.69920609 -12.20182461 384.02225354 -10.86065483 385.34135628 C4.53267926 400.48959026 17.85798251 416.78013478 18.48828125 439.359375 C18.50276097 441.76037618 18.50644055 444.16146379 18.5 446.5625 C18.51611328 447.7484375 18.53222656 448.934375 18.54882812 450.15625 C18.55542993 462.25075509 17.11448824 473.31455964 9.1875 482.8125 C8.61128906 483.51117187 8.03507812 484.20984375 7.44140625 484.9296875 C-0.2921694 493.45109102 -11.00941534 498.26908605 -22.40234375 499.0625 C-36.73944846 499.64754581 -49.51517249 496.04960664 -60.50198364 486.4666748 C-63.38770337 483.68110454 -66.20685852 480.84280488 -69.0078125 477.97265625 C-70.0495618 476.92087242 -71.09229658 475.87006385 -72.13595581 474.82017517 C-74.8607641 472.07460802 -77.57375898 469.31767793 -80.28381348 466.55755615 C-84.62321015 462.14240342 -88.98163483 457.74601361 -93.33813095 453.3477459 C-94.84342411 451.82500128 -96.34426404 450.29798694 -97.8442688 448.77003479 C-98.78169629 447.81936601 -99.71918314 446.86875578 -100.65673828 445.91821289 C-101.46152618 445.09913956 -102.26631409 444.28006622 -103.0954895 443.43617249 C-105.20309292 441.400972 -107.32985345 439.48268465 -109.54786396 437.57419205 C-113.43249638 434.18514512 -117.12212291 430.64866175 -120.76368713 427.00175476 C-121.74045903 426.02943955 -121.74045903 426.02943955 -122.73696369 425.03748161 C-124.89543806 422.88760603 -127.05039344 420.73423953 -129.20532227 418.58081055 C-130.76143709 417.02932997 -132.31774724 415.47804529 -133.87423706 413.92694092 C-138.08530652 409.72893468 -142.29308701 405.52764743 -146.49985623 401.3253324 C-149.13141937 398.69670843 -151.76356499 396.06866908 -154.39588737 393.44080544 C-163.11440464 384.736727 -171.83037073 376.03010333 -180.54371393 367.32084539 C-181.24656895 366.61832453 -181.24656895 366.61832453 -181.96362305 365.90161133 C-182.43277061 365.43268519 -182.90191817 364.96375906 -183.38528233 364.48062304 C-190.98891713 356.88093719 -198.59928523 349.28803253 -206.21257437 341.69801953 C-214.04837569 333.88597979 -221.87836299 326.06815126 -229.70300335 318.24493247 C-234.08865607 313.86032579 -238.47668487 309.47816295 -242.87075996 305.10199547 C-247.00356141 300.98571211 -251.12909448 296.86227886 -255.24926376 292.73335266 C-256.75789603 291.22395216 -258.26907171 289.7170886 -259.78303719 288.21303749 C-284.08660916 264.05925263 -284.08660916 264.05925263 -284.3125 245.8125 C-284.13088457 229.84670347 -275.87605455 220.57677336 -264.9984436 209.70410156 C-264.1225588 208.82086338 -263.24667399 207.9376252 -262.34424722 207.02762222 C-259.92953544 204.59478187 -257.51048504 202.16641483 -255.08936524 199.73996162 C-252.47215741 197.11489605 -249.86061591 194.48420239 -247.24819946 191.85437012 C-240.94811939 185.51491403 -234.63848098 179.18501344 -228.32759863 172.85631371 C-225.34944217 169.86936937 -222.37225729 166.88145694 -219.39493942 163.89367676 C-209.48738147 153.95211541 -199.57731598 144.01306369 -189.65999794 134.08123779 C-187.09118399 131.50860465 -184.52238083 128.93596073 -181.95361328 126.36328125 C-181.31523047 125.72393095 -180.67684765 125.08458066 -180.0191199 124.42585611 C-169.68300419 114.07314688 -159.3640431 103.70351453 -149.05216356 93.32667017 C-138.44482272 82.65305378 -127.82235309 71.99468364 -117.18501222 61.35096359 C-111.22097594 55.38261035 -105.26360158 49.40793322 -99.32310867 43.4161377 C-94.26339331 38.31282464 -89.19000298 33.22360684 -84.09876795 28.15173054 C-81.50628481 25.5682833 -78.92046264 22.97904056 -76.35212708 20.37156677 C-54.9501569 -1.33790681 -29.72409617 -17.3659801 0 0 Z " fill="#6C8E20" transform="translate(587.8125,266.1875)"/>
<path d="M0 0 C0.66 0 1.32 0 2 0 C3.48727405 1.50577414 3.48727405 1.50577414 5.19959831 3.56582069 C8.57906462 7.53721057 12.11791427 11.26376428 15.806427 14.9468689 C16.45408142 15.59749444 17.10173584 16.24811998 17.76901615 16.91846144 C19.91674241 19.07478585 22.06795898 21.22759185 24.21923828 23.38037109 C25.76897945 24.93474633 27.31852464 26.48931696 28.8678894 28.04406738 C33.0593636 32.24860116 37.25411589 36.44984888 41.44989634 40.65008497 C44.07178151 43.27490816 46.69308166 45.90031422 49.31420517 48.52589798 C57.51796165 56.74330542 65.72370047 64.95872558 73.93235028 73.17124498 C74.86491394 74.10425074 75.79747761 75.0372565 76.75830078 75.99853516 C77.22554785 76.46600366 77.69279492 76.93347216 78.174201 77.41510637 C85.76109471 85.00595628 93.34119894 92.60354791 100.91843905 100.20403294 C108.7090124 108.01831189 116.50532016 115.8268312 124.30704296 123.62997878 C128.68310501 128.00708993 133.05669193 132.38660851 137.42435074 136.77210617 C141.52670844 140.89089592 145.63610878 145.00252404 149.75108719 149.10870361 C151.26097756 150.6178213 152.76829711 152.12951609 154.2728653 153.64393997 C156.32424004 155.70796435 158.38461119 157.76256628 160.44754028 159.81503296 C161.04297107 160.41852015 161.63840185 161.02200734 162.251876 161.64378202 C165.31037685 164.66603376 167.7682804 166.75822058 172 168 C171.67 169.32 171.34 170.64 171 172 C161.1003648 163.02565881 151.57332447 153.72229352 142.12792969 144.27319336 C140.58105268 142.72931577 139.03397341 141.18564081 137.48670959 139.64215088 C133.32604551 135.49024035 129.16855309 131.33516848 125.01194286 127.17919993 C122.41284026 124.58081149 119.81302554 121.98313773 117.21295929 119.38571358 C108.13831569 110.32028681 99.06622332 101.25231612 89.99658203 92.18188477 C81.54340924 83.72810855 73.08464616 75.27995829 64.6233089 66.83435529 C57.34649634 59.57059277 50.07351827 52.30300615 42.8035481 45.03239542 C38.46606419 40.69465626 34.12703293 36.35849276 29.78414154 32.02616692 C25.7117856 27.96345194 21.64420452 23.89601776 17.58032036 19.8248291 C16.08602756 18.32948625 14.5900121 16.83586264 13.09218788 15.34405708 C11.05452355 13.31405458 9.02306158 11.27804495 6.99310303 9.24034119 C6.39400454 8.64638627 5.79490606 8.05243134 5.17765307 7.44047779 C2.74181901 4.98393271 1.10934748 3.32804243 0 0 Z " fill="#3E5C18" transform="translate(314,538)"/>
<path d="M0 0 C5.13196237 4.25219739 8.01337916 9.6522734 10 16 C9.67 17.32 9.34 18.64 9 20 C7.35 16.04 5.7 12.08 4 8 C3.34 8.66 2.68 9.32 2 10 C2 9.34 2 8.68 2 8 C1.01 8.33 0.02 8.66 -1 9 C-1.66 8.01 -2.32 7.02 -3 6 C-2.67 5.34 -2.34 4.68 -2 4 C-1.34 4 -0.68 4 0 4 C0 2.68 0 1.36 0 0 Z " fill="#507117" transform="translate(593,671)"/>
<path d="M0 0 C0.33 0.99 0.66 1.98 1 3 C-3.58333333 7.71064815 -3.58333333 7.71064815 -6.25 9.5625 C-8.33034477 11.27135463 -8.63837434 12.37821395 -9 15 C-10.98 15.33 -12.96 15.66 -15 16 C-10.30233025 10.33870569 -5.25276628 5.14771096 0 0 Z " fill="#4B6A0E" transform="translate(337,462)"/>
<path d="M0 0 C0.66 0.33 1.32 0.66 2 1 C-4.66666667 7.66666667 -11.33333333 14.33333333 -18 21 C-18.66 20.67 -19.32 20.34 -20 20 C-13.4 13.4 -6.8 6.8 0 0 Z " fill="#345305" transform="translate(530,269)"/>
<path d="M0 0 C0.33 0.99 0.66 1.98 1 3 C0.67 3.66 0.34 4.32 0 5 C-0.99 5.33 -1.98 5.66 -3 6 C-4.20882096 8.00016466 -4.20882096 8.00016466 -5 10 C-5.66 10 -6.32 10 -7 10 C-8.38232443 11.62626404 -9.71937515 13.2925002 -11 15 C-11.99 14.67 -12.98 14.34 -14 14 C-9.38 9.38 -4.76 4.76 0 0 Z " fill="#48690E" transform="translate(376,423)"/>
<path d="M0 0 C0.78405115 3.13620458 1 4.93211045 1 8 C-0.32 8.33 -1.64 8.66 -3 9 C-3.33 8.34 -3.66 7.68 -4 7 C-4.99 7 -5.98 7 -7 7 C-4.69 4.69 -2.38 2.38 0 0 Z " fill="#567715" transform="translate(422,377)"/>
<path d="M0 0 C0 4.35637821 -2.27897057 6.05610053 -5.109375 9.19140625 C-7.24427494 11.23367623 -9.12212703 12.30233382 -12 13 C-8.19524578 8.43969176 -4.25030379 4.14910608 0 0 Z " fill="#43620C" transform="translate(350,449)"/>
<path d="M0 0 C0.33 1.32 0.66 2.64 1 4 C-3.455 7.465 -3.455 7.465 -8 11 C-8.66 10.67 -9.32 10.34 -10 10 C-6.7 6.7 -3.4 3.4 0 0 Z " fill="#4C6E0F" transform="translate(446,353)"/>
<path d="M0 0 C0 3.16880694 -0.2058242 4.43689172 -2 7 C-4.625 7.75 -4.625 7.75 -7 8 C-6.02133662 6.85373678 -5.04205413 5.70800212 -4.0625 4.5625 C-3.51722656 3.92441406 -2.97195313 3.28632813 -2.41015625 2.62890625 C-1.63204305 1.73008851 -0.84063472 0.84063472 0 0 Z " fill="#4C6F10" transform="translate(393,406)"/>
<path d="M0 0 C0.33 0.66 0.66 1.32 1 2 C-0.4726862 5.27263601 -1.42695432 6.72014048 -4.6875 8.3125 C-5.450625 8.539375 -6.21375 8.76625 -7 9 C-5.44499019 5.18315774 -2.96404505 2.80804268 0 0 Z " fill="#42630C" transform="translate(318,481)"/>
<path d="M0 0 C1.32 0.66 2.64 1.32 4 2 C1.69 4.31 -0.62 6.62 -3 9 C-3.33 7.68 -3.66 6.36 -4 5 C-2.68 4.34 -1.36 3.68 0 3 C0 2.01 0 1.02 0 0 Z " fill="#44650A" transform="translate(498,445)"/>
<path d="M0 0 C1.32 1.32 2.64 2.64 4 4 C3.67 4.66 3.34 5.32 3 6 C3.99 6 4.98 6 6 6 C5.34 7.32 4.68 8.64 4 10 C0 3.375 0 3.375 0 0 Z " fill="#3E5D0D" transform="translate(306,524)"/>
<path d="M0 0 C-1.38081223 4.1424367 -3.59825558 5.32203099 -7 8 C-7.66 7.67 -8.32 7.34 -9 7 C-7.88121617 5.82737096 -6.75476949 4.66204862 -5.625 3.5 C-4.68527344 2.52546875 -4.68527344 2.52546875 -3.7265625 1.53125 C-2 0 -2 0 0 0 Z " fill="#3E5F08" transform="translate(519,282)"/>
</svg>
