<?xml version="1.0" encoding="UTF-8"?>
<svg version="1.1" xmlns="http://www.w3.org/2000/svg" width="1024" height="1024">
<path d="M0 0 C337.92 0 675.84 0 1024 0 C1024 337.92 1024 675.84 1024 1024 C686.08 1024 348.16 1024 0 1024 C0 686.08 0 348.16 0 0 Z " fill="#FEFEFE" transform="translate(0,0)"/>
<path d="M0 0 C8.32183252 6.07720624 14.20872458 13.02422436 17 23 C18.21497185 35.58767342 16.27009905 45.36328384 8.39205933 55.24609375 C2.9612907 61.498375 -3.02103981 67.23860727 -8.90234375 73.0625 C-10.35016668 74.50404372 -11.7974698 75.94610968 -13.24427795 77.38867188 C-17.02931948 81.16049018 -20.81991407 84.92667264 -24.61218262 88.69122314 C-30.70735991 94.74304402 -36.7955778 100.80184897 -42.88073921 106.86373901 C-45.00789064 108.98064063 -47.13840239 111.09411721 -49.26927185 113.20727539 C-50.56105576 114.49223752 -51.85273349 115.7773064 -53.14428711 117.0625 C-53.7410878 117.65256332 -54.33788849 118.24262665 -54.95277405 118.85057068 C-56.32091955 120.21485325 -57.66358453 121.60462093 -59 123 C-59 123.33 -59 123.66 -59 124 C-58.21131122 123.99631283 -57.42262243 123.99262566 -56.61003399 123.98882675 C-37.3872167 123.90034921 -18.16444025 123.83422895 1.05853748 123.79275131 C10.35477338 123.77215801 19.65087305 123.74409945 28.94702148 123.69824219 C37.05298813 123.65827519 45.15885606 123.63254371 53.26491851 123.62364602 C57.55393714 123.61844791 61.84267349 123.60629848 66.13160133 123.57707977 C70.17570237 123.54975444 74.21940717 123.54158921 78.26359177 123.54756927 C79.74093345 123.54647663 81.21828959 123.53862507 82.69555092 123.5231781 C94.98909487 123.40103021 104.95493773 125.00257482 114.0546875 133.7109375 C121.45408563 142.4178598 122.87791916 151.91313516 122 163 C120.35777649 170.63732862 117.04527355 176.96987616 111 182 C104.65298179 185.86801566 99.10431678 188.12617313 91.64094543 188.12025452 C90.99318089 188.12110894 90.34541634 188.12196337 89.67802256 188.12284368 C87.50382625 188.12449301 85.3297068 188.11898606 83.15551758 188.11352539 C81.59844464 188.11324337 80.04137157 188.11340153 78.48429871 188.1139679 C74.25319473 188.11425531 70.02211899 188.1083676 65.79102159 188.10139394 C61.37074822 188.0951511 56.95047424 188.09455586 52.53019714 188.09336853 C44.15795613 188.09025797 35.78572813 188.08204826 27.41349286 188.07201904 C17.88277206 188.06084939 8.35205065 188.0553453 -1.17867506 188.05032361 C-20.78579065 188.03986544 -40.3928945 188.02227129 -60 188 C-60 188.66 -60 189.32 -60 190 C-59.46824661 190.20774551 -58.93649323 190.41549103 -58.3886261 190.62953186 C-55.03225923 192.5552388 -52.49557001 195.2096108 -49.78198242 197.92749023 C-49.16841385 198.53434158 -48.55484528 199.14119293 -47.92268372 199.76643372 C-45.89493364 201.77518343 -43.87481392 203.79139716 -41.85546875 205.80859375 C-40.44320581 207.21442638 -39.03079409 208.62010957 -37.61824036 210.02565002 C-34.65491595 212.97699384 -31.69576115 215.93244884 -28.73901367 218.89038086 C-24.97007677 222.65952011 -21.18762267 226.41476162 -17.40136242 230.16648769 C-14.47659798 233.06887986 -11.56110577 235.98045451 -8.64803505 238.89457893 C-7.25875173 240.28151837 -5.8662618 241.66525412 -4.47038841 243.04556084 C17.19740635 264.49438101 17.19740635 264.49438101 17.375 281.3125 C17.21519949 291.43985762 14.09590395 299.66756592 7 307 C-1.70288152 314.24145425 -10.26866554 316.61782258 -21.5 316.3515625 C-40.59593043 314.43344449 -53.57532759 298.56979484 -66.34692383 285.84594727 C-67.55192533 284.64886836 -68.75710006 283.45196382 -69.96243286 282.25521851 C-73.88096421 278.3626241 -77.79430263 274.46483209 -81.70703125 270.56640625 C-83.06217189 269.21663405 -84.41731706 267.86686639 -85.77246666 266.5171032 C-91.40845116 260.90269184 -97.04301723 255.28686335 -102.67387867 249.66731358 C-110.71059209 241.64686121 -118.75570175 233.63504599 -126.81266195 225.63493115 C-132.49896348 219.98737565 -138.17560502 214.33022455 -143.84520739 208.66590542 C-147.22329878 205.29145645 -150.60539326 201.92126925 -153.99790382 198.56131172 C-157.18631627 195.40306765 -160.36253369 192.23304279 -163.53001785 189.05381393 C-164.68942735 187.89418455 -165.85307373 186.73877222 -167.02137947 185.58810616 C-175.46611551 177.26392128 -183.00668482 168.83294473 -183.3125 156.375 C-183.12091482 140.47342994 -169.89548822 130.73749792 -159.4621582 120.25341797 C-158.19965987 118.98136406 -156.93733031 117.70914264 -155.67515564 116.43676758 C-151.55425527 112.28469848 -147.42799029 108.13798456 -143.30078125 103.9921875 C-142.59634125 103.28445017 -141.89190124 102.57671285 -141.16611457 101.84752893 C-134.51276871 95.16342849 -127.8573838 88.48136459 -121.19714069 81.80413628 C-112.70788438 73.29296611 -104.2288469 64.77189245 -95.76344043 56.23699844 C-89.792384 50.21861251 -83.80979416 44.21184487 -77.81865376 38.21345246 C-74.24829613 34.63815554 -70.68310747 31.0580467 -67.13027382 27.46532822 C-63.78710039 24.08511344 -60.42977403 20.71961014 -57.06142616 17.36448669 C-55.83402808 16.13703497 -54.61167523 14.90451207 -53.39506149 13.66637039 C-39.22361146 -0.74215647 -19.7966463 -11.23919189 0 0 Z " fill="#F29192" transform="translate(543,356)"/>
<path d="M0 0 C0.66 0.99 1.32 1.98 2 3 C0.40207236 4.65189143 -1.20355876 6.2963339 -2.8125 7.9375 C-3.70582031 8.85402344 -4.59914063 9.77054687 -5.51953125 10.71484375 C-8 13 -8 13 -11 14 C-12.66710346 15.49985609 -12.66710346 15.49985609 -14 17 C-12.52778565 11.97769914 -9.5510349 9.19721778 -5.875 5.6875 C-5.31167969 5.13771484 -4.74835938 4.58792969 -4.16796875 4.02148438 C-2.78537942 2.67404562 -1.39359084 1.33605727 0 0 Z " fill="#EC7E7F" transform="translate(378,482)"/>
<path d="M0 0 C0 3 0 3 -2.25 5.4375 C-3.1575 6.283125 -4.065 7.12875 -5 8 C-6.1446875 9.1446875 -6.1446875 9.1446875 -7.3125 10.3125 C-7.869375 10.869375 -8.42625 11.42625 -9 12 C-9.66 11.67 -10.32 11.34 -11 11 C-7.37 7.37 -3.74 3.74 0 0 Z " fill="#E97072" transform="translate(390,470)"/>
<path d="M0 0 C0.75 1.75 0.75 1.75 1 4 C-0.8125 6.25 -0.8125 6.25 -3 8 C-3.66 8 -4.32 8 -5 8 C-4.45773019 4.20411134 -2.79872437 2.52788007 0 0 Z " fill="#EE8B8B" transform="translate(550,408)"/>
</svg>
